<svg width="24" height="24" viewBox="0 0 24 24" fill="none" xmlns="http://www.w3.org/2000/svg">
<path d="M16.792 3.90446C18.1064 3.97713 19.3389 4.56636 20.2207 5.54376C21.1026 6.52117 21.5624 7.8075 21.5 9.12246C21.5 12.1945 18.848 14.0815 16.303 16.3445C13.791 18.5875 12.438 19.8135 12 20.0965C11.523 19.7875 9.85698 18.2735 7.69698 16.3445C5.14098 14.0725 2.49998 12.1675 2.49998 9.12246C2.43755 7.8075 2.89737 6.52117 3.77924 5.54376C4.66111 4.56636 5.89355 3.97713 7.20798 3.90446C7.93613 3.88239 8.65754 4.04964 9.30169 4.38986C9.94585 4.73008 10.4907 5.23162 10.883 5.84546C11.723 7.02046 11.863 7.60846 12.003 7.60846C12.143 7.60846 12.281 7.02046 13.113 5.84246C13.503 5.22578 14.0481 4.72225 14.6937 4.38217C15.3393 4.04209 16.0628 3.87737 16.792 3.90446ZM16.792 1.90446C15.8839 1.87539 14.981 2.05154 14.1504 2.41981C13.3199 2.78808 12.5831 3.33897 11.995 4.03146C11.4074 3.34099 10.6721 2.79137 9.84353 2.42321C9.01496 2.05506 8.11427 1.87777 7.20798 1.90446C5.36285 1.97661 3.62136 2.77644 2.36432 4.12906C1.10728 5.48167 0.436977 7.277 0.499982 9.12246C0.499982 12.7325 3.04998 14.9495 5.51498 17.0925C5.79798 17.3385 6.08398 17.5865 6.36798 17.8395L7.39498 18.7575C8.51502 19.8232 9.68925 20.8306 10.913 21.7755C11.2368 21.9851 11.6143 22.0966 12 22.0966C12.3857 22.0966 12.7632 21.9851 13.087 21.7755C14.3497 20.8017 15.56 19.7619 16.713 18.6605L17.635 17.8365C17.928 17.5765 18.225 17.3175 18.52 17.0625C20.854 15.0375 23.5 12.7425 23.5 9.12246C23.563 7.277 22.8927 5.48167 21.6356 4.12906C20.3786 2.77644 18.6371 1.97661 16.792 1.90446Z" fill="black"/>
</svg>
