<svg width="16" height="16" viewBox="0 0 16 16" fill="none" xmlns="http://www.w3.org/2000/svg">
<path d="M3.92533 15C3.52268 14.9997 3.12712 14.894 2.778 14.6933L2.776 14.692C2.42759 14.49 2.13831 14.2001 1.93708 13.8512C1.73586 13.5023 1.62974 13.1068 1.62933 12.704V3.29535C1.62922 2.89244 1.73511 2.49659 1.93636 2.14754C2.13761 1.79849 2.42714 1.50853 2.77589 1.30677C3.12464 1.105 3.52034 0.998532 3.92325 0.998049C4.32615 0.997565 4.7221 1.10308 5.07133 1.30401L13.222 6.01001C13.5713 6.21151 13.8613 6.50143 14.063 6.85063C14.2647 7.19982 14.3708 7.59597 14.3707 7.99921C14.3706 8.40244 14.2644 8.79855 14.0626 9.14768C13.8608 9.49681 13.5707 9.78664 13.2213 9.98801L5.07467 14.692C4.72506 14.8934 4.32878 14.9996 3.92533 15Z" fill="black"/>
</svg>
