<svg width="24" height="24" viewBox="0 0 24 24" fill="none" xmlns="http://www.w3.org/2000/svg">
<path d="M12 14.75C13.5188 14.75 14.75 13.5188 14.75 12C14.75 10.4812 13.5188 9.25 12 9.25C10.4812 9.25 9.25 10.4812 9.25 12C9.25 13.5188 10.4812 14.75 12 14.75Z" fill="black"/>
<path d="M19.5 14.75C21.0188 14.75 22.25 13.5188 22.25 12C22.25 10.4812 21.0188 9.25 19.5 9.25C17.9812 9.25 16.75 10.4812 16.75 12C16.75 13.5188 17.9812 14.75 19.5 14.75Z" fill="black"/>
<path d="M4.5 14.75C6.01878 14.75 7.25 13.5188 7.25 12C7.25 10.4812 6.01878 9.25 4.5 9.25C2.98122 9.25 1.75 10.4812 1.75 12C1.75 13.5188 2.98122 14.75 4.5 14.75Z" fill="black"/>
</svg>
