<svg width="24" height="24" viewBox="0 0 24 24" fill="none" xmlns="http://www.w3.org/2000/svg">
<path d="M15 15.5C15 16.605 13.657 17.5 12 17.5C10.343 17.5 9 16.605 9 15.5C9 14.395 10.343 13.5 12 13.5C13.657 13.5 15 14.395 15 15.5Z" fill="black"/>
<path d="M1.51301 9.37C1.60692 9.25424 1.72552 9.16094 1.86013 9.09692C1.99474 9.03291 2.14195 8.99979 2.29101 9H21.709C21.8581 8.99987 22.0053 9.03306 22.1398 9.09714C22.2744 9.16123 22.3929 9.25458 22.4868 9.37038C22.5806 9.48617 22.6474 9.62148 22.6822 9.76641C22.717 9.91133 22.719 10.0622 22.688 10.208L20.349 21.208C20.3014 21.4321 20.1782 21.633 20.0002 21.7771C19.8222 21.9213 19.6001 22 19.371 22H4.63001C4.40094 22 4.17882 21.9213 4.00081 21.7771C3.82279 21.633 3.69966 21.4321 3.65201 21.208L1.31301 10.208C1.28208 10.0623 1.28407 9.91157 1.31884 9.76677C1.35362 9.62196 1.4203 9.48674 1.51401 9.371L1.51301 9.37ZM3.52501 11L5.43801 20H18.561L20.474 11H3.52501ZM4.00001 2C4.00001 1.73478 4.10537 1.48043 4.29291 1.29289C4.48044 1.10536 4.7348 1 5.00001 1H19C19.2652 1 19.5196 1.10536 19.7071 1.29289C19.8947 1.48043 20 1.73478 20 2V6H18V3H6.00001V6H4.00001V2Z" fill="black"/>
</svg>
