<svg width="24" height="24" viewBox="0 0 24 24" fill="none" xmlns="http://www.w3.org/2000/svg">
<g clip-path="url(#clip0_32_181)">
<path d="M12 2.25C9.41414 2.25 6.93419 3.27723 5.10571 5.10571C3.27723 6.93419 2.25 9.41414 2.25 12C2.25 14.5859 3.27723 17.0658 5.10571 18.8943C6.93419 20.7228 9.41414 21.75 12 21.75C14.5859 21.75 17.0658 20.7228 18.8943 18.8943C20.7228 17.0658 21.75 14.5859 21.75 12C21.75 9.41414 20.7228 6.93419 18.8943 5.10571C17.0658 3.27723 14.5859 2.25 12 2.25ZM0 12C0 8.8174 1.26428 5.76516 3.51472 3.51472C5.76516 1.26428 8.8174 0 12 0C15.1826 0 18.2348 1.26428 20.4853 3.51472C22.7357 5.76516 24 8.8174 24 12C24 15.1826 22.7357 18.2348 20.4853 20.4853C18.2348 22.7357 15.1826 24 12 24C8.8174 24 5.76516 22.7357 3.51472 20.4853C1.26428 18.2348 0 15.1826 0 12Z" fill="black"/>
<path d="M17.625 12C17.625 12.2984 17.5065 12.5845 17.2955 12.7955C17.0845 13.0065 16.7984 13.125 16.5 13.125H13.125V16.5C13.125 16.7984 13.0065 17.0845 12.7955 17.2955C12.5845 17.5065 12.2984 17.625 12 17.625C11.7016 17.625 11.4155 17.5065 11.2045 17.2955C10.9935 17.0845 10.875 16.7984 10.875 16.5V13.125H7.5C7.20163 13.125 6.91548 13.0065 6.7045 12.7955C6.49353 12.5845 6.375 12.2984 6.375 12C6.375 11.7016 6.49353 11.4155 6.7045 11.2045C6.91548 10.9935 7.20163 10.875 7.5 10.875H10.875V7.5C10.875 7.20163 10.9935 6.91548 11.2045 6.7045C11.4155 6.49353 11.7016 6.375 12 6.375C12.2984 6.375 12.5845 6.49353 12.7955 6.7045C13.0065 6.91548 13.125 7.20163 13.125 7.5V10.875H16.5C16.7984 10.875 17.0845 10.9935 17.2955 11.2045C17.5065 11.4155 17.625 11.7016 17.625 12Z" fill="black"/>
</g>
<defs>
<clipPath id="clip0_32_181">
<rect width="24" height="24" fill="white"/>
</clipPath>
</defs>
</svg>
