<svg width="24" height="24" viewBox="0 0 24 24" fill="none" xmlns="http://www.w3.org/2000/svg">
<g clip-path="url(#clip0_32_136)">
<path d="M12.228 24H12C8.82743 23.9699 5.7959 22.6845 3.56849 20.4251C1.34108 18.1658 0.0990786 15.1162 0.114149 11.9435C0.12922 8.77085 1.40013 5.73324 3.64891 3.49512C5.89769 1.257 8.94129 0.000534058 12.114 0.000534058C15.2867 0.000534058 18.3303 1.257 20.5791 3.49512C22.8279 5.73324 24.0988 8.77085 24.1139 11.9435C24.129 15.1162 22.8869 18.1658 20.6595 20.4251C18.4321 22.6845 15.4006 23.9699 12.228 24ZM11.613 2.69699C11.274 3.10649 10.9185 3.76649 10.5975 4.68149C10.044 6.26399 9.65851 8.42549 9.56701 10.875H14.8875C14.7975 8.42549 14.4105 6.26399 13.857 4.68149C13.5375 3.76649 13.182 3.10649 12.843 2.69699C12.552 2.34449 12.354 2.26949 12.2655 2.25299H12.1995C12.117 2.26349 11.9145 2.33099 11.613 2.69699ZM7.31551 10.875C7.40851 8.21849 7.82551 5.79599 8.47501 3.93899C8.62351 3.51299 8.78701 3.10799 8.96851 2.72999C7.1975 3.31066 5.62976 4.38624 4.45062 5.8296C3.27148 7.27296 2.53023 9.02374 2.31451 10.875H7.31551ZM2.31451 13.125C2.53023 14.9762 3.27148 16.727 4.45062 18.1704C5.62976 19.6137 7.1975 20.6893 8.96851 21.27C8.78161 20.8763 8.61637 20.4727 8.47351 20.061C7.82401 18.204 7.40851 15.7815 7.31551 13.125H2.31451ZM9.56701 13.125C9.65851 15.5745 10.044 17.736 10.5975 19.3185C10.9185 20.2335 11.274 20.8935 11.613 21.303C11.916 21.669 12.117 21.738 12.1995 21.7485L12.2655 21.747C12.3555 21.732 12.5505 21.6555 12.843 21.303C13.182 20.8935 13.5375 20.2335 13.857 19.3185C14.412 17.736 14.796 15.5745 14.8875 13.125H9.56701ZM17.139 13.125C17.0475 15.7815 16.6305 18.204 15.981 20.061C15.858 20.4135 15.7245 20.751 15.579 21.072C17.2203 20.4233 18.655 19.3417 19.7303 17.9423C20.8057 16.5428 21.4814 14.878 21.6855 13.125H17.1405H17.139ZM21.6855 10.875C21.4812 9.12204 20.8054 7.45728 19.7301 6.05788C18.6548 4.65848 17.2202 3.57682 15.579 2.92799C15.7245 3.24899 15.858 3.58799 15.981 3.93899C16.6305 5.79599 17.0475 8.21849 17.139 10.875H21.6855Z" fill="black"/>
</g>
<defs>
<clipPath id="clip0_32_136">
<rect width="24" height="24" fill="white"/>
</clipPath>
</defs>
</svg>
