<svg width="24" height="24" viewBox="0 0 24 24" fill="none" xmlns="http://www.w3.org/2000/svg">
<path d="M16.794 12L9 7.5V16.5L16.794 12Z" fill="black"/>
<path d="M22.503 2.625C22.503 1.92881 22.2264 1.26113 21.7341 0.768845C21.2419 0.276562 20.5742 0 19.878 0H4.12799C3.4318 0 2.76412 0.276562 2.27184 0.768845C1.77955 1.26113 1.50299 1.92881 1.50299 2.625V21.375C1.50299 22.824 2.67749 24 4.12799 24H19.878C20.5742 24 21.2419 23.7234 21.7341 23.2312C22.2264 22.7389 22.503 22.0712 22.503 21.375V2.625ZM19.878 2.25C19.9774 2.25 20.0728 2.28951 20.1432 2.35984C20.2135 2.43016 20.253 2.52554 20.253 2.625V21.375C20.253 21.4745 20.2135 21.5698 20.1432 21.6402C20.0728 21.7105 19.9774 21.75 19.878 21.75H4.12799C4.02853 21.75 3.93315 21.7105 3.86283 21.6402C3.7925 21.5698 3.75299 21.4745 3.75299 21.375V2.625C3.75299 2.52554 3.7925 2.43016 3.86283 2.35984C3.93315 2.28951 4.02853 2.25 4.12799 2.25H19.878Z" fill="black"/>
</svg>
