<svg width="235" height="65" viewBox="0 0 235 65" fill="none" xmlns="http://www.w3.org/2000/svg">
<g clip-path="url(#clip0_53_3292)">
<path d="M33.3193 0.0266988C15.6355 -0.675631 0.731714 13.0906 0.0293843 30.7743C-0.672945 48.4607 13.0932 63.3645 30.7797 64.0642C48.4634 64.7665 63.3672 51.0003 64.0696 33.3166C64.7719 15.6328 51.003 0.726358 33.3193 0.0266988ZM46.8478 46.9706C46.5964 47.4112 46.1805 47.7339 45.6913 47.8681C45.2022 48.0023 44.6797 47.9369 44.2388 47.6863C40.0022 45.2756 35.3459 43.6924 30.518 43.021C25.6924 42.3358 20.7806 42.5741 16.0441 43.7233C15.5607 43.8171 15.0598 43.7211 14.6454 43.4552C14.2309 43.1893 13.9349 42.774 13.8187 42.2955C13.7025 41.817 13.7751 41.3121 14.0215 40.8858C14.2678 40.4594 14.6689 40.1444 15.1415 40.0061C20.3489 38.7403 25.7031 38.4812 31.0521 39.2316C36.401 39.9847 41.4748 41.7098 46.1321 44.3589C46.3506 44.4834 46.5424 44.6497 46.6966 44.8483C46.8509 45.0469 46.9644 45.274 47.0309 45.5165C47.0974 45.7591 47.1154 46.0123 47.084 46.2618C47.0526 46.5113 46.9723 46.7521 46.8478 46.9706ZM51.0591 38.5587C50.904 38.8462 50.6938 39.1003 50.4404 39.3064C50.187 39.5125 49.8954 39.6666 49.5824 39.7599C49.2693 39.8532 48.9409 39.8838 48.616 39.8499C48.2911 39.8161 47.9761 39.7185 47.689 39.5628C42.7278 36.8806 37.3267 35.108 31.741 34.3287C26.1568 33.5382 20.4763 33.7534 14.9679 34.9643C14.6487 35.035 14.3187 35.0421 13.9969 34.985C13.675 34.928 13.3675 34.8079 13.0921 34.6318C12.8167 34.4556 12.5788 34.2268 12.392 33.9585C12.2052 33.6902 12.0733 33.3877 12.0037 33.0682C11.9329 32.7491 11.9259 32.4191 11.9829 32.0972C12.04 31.7753 12.16 31.4678 12.3362 31.1924C12.5124 30.917 12.7411 30.6791 13.0095 30.4923C13.2778 30.3056 13.5803 30.1736 13.8997 30.104C19.9857 28.7637 26.2629 28.5268 32.4327 29.4044C38.6054 30.2615 44.5742 32.2198 50.055 35.1859C51.2621 35.8402 51.7107 37.349 51.0591 38.5587ZM55.7271 29.0759C55.3521 29.7959 54.7066 30.3375 53.9325 30.5819C53.1584 30.8262 52.3189 30.7533 51.5985 30.3791C45.8213 27.3755 39.5733 25.3814 33.1243 24.4827C26.6772 23.5683 20.1212 23.7625 13.7395 25.0569C12.9486 25.2072 12.1303 25.0399 11.4619 24.5911C10.7936 24.1423 10.329 23.4483 10.1688 22.6593C10.0086 21.8703 10.1657 21.05 10.6062 20.3761C11.0466 19.7022 11.7349 19.229 12.5218 19.059C19.5846 17.6254 26.8404 17.4087 33.9762 18.4181C41.1141 19.4144 48.0295 21.6226 54.4239 24.9474C55.922 25.7271 56.5068 27.5751 55.7271 29.0759ZM92.0773 28.9798L89.8555 28.3202C85.3958 26.9983 84.1407 26.5016 84.1407 24.707C84.1407 23.006 86.0314 21.1633 90.1866 21.1633C94.2964 21.1633 97.768 23.1715 99.5599 24.6616C99.8697 24.918 100.201 24.8005 100.201 24.3999V18.5196C100.201 18.2606 100.129 18.119 99.9391 17.9775C97.7226 16.3218 93.8718 15.1201 89.997 15.1201C82.1112 15.1201 77.3871 19.6065 77.3871 24.707C77.3871 30.4672 81.0483 32.4781 87.0702 34.1765L89.6685 34.9082C94.1789 36.1846 95.0041 37.3169 95.0041 39.0634C95.0041 41.9929 92.785 42.8902 89.4763 42.8902C85.321 42.8902 80.2445 40.4574 77.8598 37.4825C77.6461 37.2208 77.3871 37.341 77.3871 37.6481V44.1186C77.3871 44.3776 77.4138 44.4951 77.6007 44.7061C79.5849 46.8798 84.3303 48.7919 89.8581 48.7919C96.6571 48.7919 101.758 44.8262 101.758 38.6869C101.758 33.9148 98.9484 31.036 92.0773 28.9798ZM119.068 24.2798C114.581 24.2798 111.983 27.0196 110.471 29.7595V25.0382C110.471 24.8245 110.354 24.707 110.14 24.707H104.212C104.001 24.707 103.883 24.8245 103.883 25.0382V55.3318C103.883 55.5454 104.001 55.6629 104.214 55.6629H110.143C110.354 55.6629 110.471 55.5454 110.471 55.3318V43.2186C111.983 45.9558 114.533 48.6503 119.116 48.6503C125.162 48.6503 129.504 43.4296 129.504 36.417C129.504 29.4044 125.113 24.2798 119.068 24.2798ZM117.321 42.9356C114.157 42.9356 111.417 39.8191 110.33 36.3716C111.417 32.7344 113.919 29.9491 117.321 29.9491C120.555 29.9491 122.798 32.406 122.798 36.4196C122.798 40.4333 120.555 42.9356 117.321 42.9356ZM225.83 24.707H219.784C219.57 24.707 219.477 24.7524 219.383 24.9661L213.289 39.6082L207.174 24.9661C207.08 24.7524 206.987 24.707 206.773 24.707H196.997V23.1475C196.997 20.5972 198.719 19.4169 200.938 19.4169C202.263 19.4169 203.702 20.1005 204.717 20.7147C204.955 20.8562 205.118 20.6933 205.024 20.4797L202.898 15.4032C202.834 15.2488 202.717 15.1227 202.567 15.048C201.529 14.5059 199.83 14.0332 198.177 14.0332C193.17 14.0332 190.289 17.8573 190.289 22.7229V24.707H186.275C186.061 24.707 185.944 24.8245 185.944 25.0382V29.7595C185.944 29.9732 186.061 30.0907 186.275 30.0907H190.289V47.8973C190.289 48.1109 190.406 48.2257 190.62 48.2257H196.666C196.879 48.2257 196.997 48.1082 196.997 47.8973V30.0907H202.167L209.676 46.4071L205.638 55.2864C205.521 55.5481 205.662 55.6656 205.897 55.6656H212.344C212.558 55.6656 212.654 55.6175 212.744 55.4066L226.089 25.0836C226.182 24.8699 226.065 24.707 225.83 24.707ZM144.242 24.1409C136.591 24.1409 131.325 29.5486 131.325 36.4677C131.325 43.3388 136.588 48.7945 144.242 48.7945C151.869 48.7945 157.183 43.3388 157.183 36.4677C157.183 29.5486 151.869 24.1409 144.242 24.1409ZM144.263 43.0077C140.605 43.0077 138.006 40.2224 138.006 36.465C138.006 32.7131 140.605 29.9251 144.263 29.9251C147.9 29.9251 150.499 32.7104 150.499 36.4677C150.499 40.2224 147.9 43.0103 144.263 43.0103M233.833 26.0957C233.528 25.5653 233.081 25.1299 232.543 24.8379C231.976 24.5293 231.338 24.3729 230.693 24.3839C230.009 24.3839 229.392 24.5352 228.842 24.8379C228.303 25.1295 227.856 25.5649 227.549 26.0957C227.24 26.6333 227.085 27.2395 227.085 27.9143C227.085 28.5819 227.24 29.1845 227.549 29.7221C227.861 30.2562 228.292 30.6755 228.842 30.9799C229.392 31.2844 230.009 31.4357 230.693 31.4339C231.376 31.4321 231.993 31.2808 232.543 30.9799C233.093 30.6791 233.523 30.2598 233.833 29.7221C234.143 29.1845 234.299 28.5828 234.3 27.9169C234.3 27.2404 234.145 26.6333 233.833 26.0957ZM233.27 29.4257C233.024 29.8651 232.659 30.2261 232.217 30.4672C231.75 30.7218 231.225 30.8507 230.693 30.8411C230.156 30.8518 229.626 30.7229 229.154 30.4672C228.715 30.2249 228.354 29.864 228.11 29.4257C227.857 28.9628 227.728 28.442 227.736 27.9143C227.736 27.3517 227.861 26.8514 228.11 26.4135C228.359 25.9755 228.708 25.6301 229.154 25.3773C229.601 25.1245 230.114 24.9999 230.693 25.0035C231.262 25.0035 231.77 25.1281 232.215 25.3773C232.665 25.6283 233.017 25.9755 233.27 26.4188C233.522 26.8621 233.649 27.365 233.649 27.9276C233.649 28.4831 233.522 28.9815 233.27 29.4231M180.301 13.9878C178.031 13.9878 176.381 15.5901 176.381 17.7158C176.381 19.8415 178.034 21.4464 180.301 21.4464C182.614 21.4464 184.267 19.8441 184.267 17.7158C184.267 15.5901 182.614 13.9878 180.301 13.9878ZM231.918 27.8448C232.031 27.767 232.123 27.6623 232.186 27.5402C232.248 27.418 232.279 27.2823 232.276 27.1452C232.276 26.8461 232.159 26.6093 231.924 26.4348C231.689 26.2586 231.349 26.1704 230.906 26.1704H229.336V29.4524H230.094V28.1466H230.506L231.504 29.4524H232.439L231.344 28.0691C231.55 28.0402 231.747 27.9634 231.918 27.8448ZM230.786 27.5537H230.092V26.7526H230.813C231.026 26.7526 231.19 26.7846 231.304 26.8487C231.36 26.8775 231.407 26.9223 231.438 26.9774C231.469 27.0325 231.482 27.0955 231.478 27.1585C231.479 27.2199 231.463 27.2804 231.432 27.333C231.4 27.3855 231.354 27.4278 231.299 27.4549C231.139 27.5298 230.962 27.5637 230.786 27.5537ZM183.345 24.707H177.302C177.089 24.707 176.971 24.8245 176.971 25.0382V47.8973C176.971 48.1109 177.089 48.2257 177.302 48.2257H183.345C183.559 48.2257 183.677 48.1082 183.677 47.8973V25.0382C183.677 24.8245 183.559 24.707 183.345 24.707ZM174.445 42.3454C173.584 42.8163 172.614 43.0529 171.633 43.0317C169.697 43.0317 168.468 41.8968 168.468 39.3945V30.0907H174.373C174.586 30.0907 174.704 29.9732 174.704 29.7595V25.0382C174.704 24.8245 174.586 24.707 174.373 24.707H168.471V18.5436C168.471 18.2846 168.303 18.1431 168.07 18.33L157.511 26.6431C157.37 26.7606 157.324 26.8781 157.324 27.0704V29.7595C157.324 29.9732 157.442 30.0907 157.653 30.0907H161.763V40.3853C161.763 45.9585 164.975 48.5569 169.555 48.5569C171.539 48.5569 173.454 48.0388 174.586 47.3765C174.752 47.2831 174.773 47.1896 174.773 47.0214V42.535C174.773 42.3 174.656 42.2252 174.445 42.3454Z" fill="#1ED760"/>
</g>
<defs>
<clipPath id="clip0_53_3292">
<rect width="235" height="64.0909" fill="white"/>
</clipPath>
</defs>
</svg>
