<svg width="189" height="64" viewBox="0 0 189 64" fill="none" xmlns="http://www.w3.org/2000/svg">
<path d="M31.9437 63.9957C49.5967 63.9957 63.8873 49.7023 63.8873 32.0457C63.8873 14.3891 49.5967 0.0957031 31.9437 0.0957031C14.2906 0.0957031 0 14.3891 0 32.0457C0 49.7023 14.2906 63.9957 31.9437 63.9957Z" fill="#FF0033"/>
<path d="M31.9437 15.1931C41.2271 15.1931 48.7561 22.7602 48.7561 32.0089C48.7561 41.2576 41.1905 48.8247 31.9437 48.8247C22.6968 48.8247 15.1312 41.2576 15.1312 32.0089C15.1312 22.7602 22.6968 15.1931 31.9437 15.1931ZM31.9437 12.5977C21.2349 12.5977 12.5363 21.298 12.5363 32.0089C12.5363 42.7199 21.2349 51.4202 31.9437 51.4202C42.6525 51.4202 51.3511 42.7199 51.3511 32.0089C51.3511 21.298 42.6525 12.5977 31.9437 12.5977Z" fill="white"/>
<path d="M25.8035 41.4772L42.1408 32.0457L25.8035 22.6143V41.5137V41.4772Z" fill="white"/>
<path d="M75.607 10.5146H87.193L90.2631 26.8918C91.5058 33.5084 92.8581 43.3054 93.3332 47.5825H93.3698C93.8815 43.3054 95.051 33.545 96.3668 26.8552L99.5465 10.5512H111.059V54.7109H104.042V35.4824C104.042 29.7066 104.481 22.4685 104.81 15.8884H104.736L103.677 21.6643L97.0977 54.6744H89.5321L82.9168 21.6643L81.93 15.8884H81.8569C82.1858 22.4685 82.5879 29.67 82.5879 35.4824V54.7109H75.5705V10.5512L75.607 10.5146Z" fill="white"/>
<path d="M115.007 46.6687V22.3955H122.28V45.9011C122.28 48.7524 122.901 49.9953 124.4 49.9953C125.898 49.9953 126.629 49.4835 127.433 47.3999V22.3955H134.706V54.6745H128.566L128.128 50.3243C127.251 53.395 125.46 55.296 121.805 55.296C118.15 55.296 115.043 52.1887 115.043 46.6687H115.007Z" fill="white"/>
<path d="M137.557 44.8404L143.697 44.7308C143.369 48.3133 144.648 50.3604 146.804 50.3604C148.96 50.3604 149.618 49.0809 149.618 47.3994C149.618 45.7178 147.572 43.6706 144.1 40.9655C139.933 37.8217 137.484 35.5552 137.484 30.3642C137.484 25.1733 140.554 21.8467 146.731 21.8467C152.908 21.8467 155.978 25.1002 155.503 32.9597L149.399 33.2156C149.363 28.3902 148.668 26.9645 146.621 26.9645C144.575 26.9645 143.844 27.9515 143.844 29.7428C143.844 32.4114 145.269 33.5812 147.645 35.3359C153.346 39.5398 155.978 41.4773 155.978 46.7779C155.978 52.0785 152.725 55.4783 146.439 55.4783C140.152 55.4783 136.607 51.5668 137.557 44.9136V44.8404Z" fill="white"/>
<path d="M158.427 14.9014C158.427 11.4651 159.706 10.5146 162.337 10.5146C164.969 10.5146 166.212 11.6113 166.212 14.9014C166.212 18.1914 165.042 19.3978 162.337 19.3978C159.633 19.3978 158.427 18.3742 158.427 14.9014ZM158.792 22.3954H165.846V54.6744H158.792V22.3954Z" fill="white"/>
<path d="M169.318 40.746V36.2131C169.318 25.5753 172.206 21.7734 179.259 21.7734C186.313 21.7734 184.413 22.468 185.838 23.8937C187.264 25.3194 188.433 29.2674 187.995 34.2756L181.672 34.7143C181.672 28.7191 181.16 26.7816 179.15 26.7816C177.14 26.7816 176.555 28.8288 176.555 35.2992V41.5503C176.555 48.24 176.92 50.2872 179.077 50.2872C181.233 50.2872 181.854 48.4594 181.854 42.7566L188.214 43.0856C188.36 48.0938 187.593 51.3473 185.546 53.2482C184.12 54.6008 182.037 55.2588 178.967 55.2588C171.767 55.2588 169.282 51.7494 169.282 40.7826L169.318 40.746Z" fill="white"/>
</svg>
