<svg width="24" height="24" viewBox="0 0 24 24" fill="none" xmlns="http://www.w3.org/2000/svg">
<g clip-path="url(#clip0_33_505)">
<path d="M12 2.25C10.4087 2.25 8.8826 2.88214 7.75739 4.00736C6.63217 5.13258 6.00003 6.6587 6.00003 8.25V13.155C5.99972 13.3514 5.94801 13.5443 5.85003 13.7145L3.38253 18H20.6175L18.15 13.713C18.0518 13.5423 18.0001 13.3489 18 13.152V8.25C18 6.6587 17.3679 5.13258 16.2427 4.00736C15.1174 2.88214 13.5913 2.25 12 2.25ZM3.75003 8.25C3.75003 6.06196 4.61922 3.96354 6.1664 2.41637C7.71357 0.869194 9.81199 0 12 0C14.1881 0 16.2865 0.869194 17.8337 2.41637C19.3808 3.96354 20.25 6.06196 20.25 8.25V12.8505L23.5395 18.564C23.6379 18.735 23.6896 18.9289 23.6894 19.1263C23.6892 19.3236 23.637 19.5174 23.5383 19.6882C23.4395 19.859 23.2975 20.0008 23.1266 20.0994C22.9557 20.1981 22.7618 20.25 22.5645 20.25H15.75C15.75 21.2446 15.3549 22.1984 14.6517 22.9016C13.9484 23.6049 12.9946 24 12 24C11.0055 24 10.0516 23.6049 9.34838 22.9016C8.64511 22.1984 8.25003 21.2446 8.25003 20.25H1.43553C1.23821 20.25 1.04436 20.1981 0.873451 20.0994C0.702538 20.0008 0.560568 19.859 0.461788 19.6882C0.363007 19.5174 0.310891 19.3236 0.31067 19.1263C0.310448 18.9289 0.362129 18.735 0.460526 18.564L3.75003 12.8535V8.25ZM10.5 20.25C10.5 20.6478 10.6581 21.0294 10.9394 21.3107C11.2207 21.592 11.6022 21.75 12 21.75C12.3979 21.75 12.7794 21.592 13.0607 21.3107C13.342 21.0294 13.5 20.6478 13.5 20.25H10.5Z" fill="black"/>
</g>
<defs>
<clipPath id="clip0_33_505">
<rect width="24" height="24" fill="white"/>
</clipPath>
</defs>
</svg>
