<svg width="24" height="24" viewBox="0 0 24 24" fill="none" xmlns="http://www.w3.org/2000/svg">
<path d="M3.29303 3.293C3.48056 3.10553 3.73487 3.00022 4.00003 3.00022C4.26519 3.00022 4.5195 3.10553 4.70703 3.293L12 10.586L19.293 3.293C19.3853 3.19749 19.4956 3.12131 19.6176 3.0689C19.7396 3.01649 19.8708 2.98891 20.0036 2.98775C20.1364 2.9866 20.2681 3.0119 20.391 3.06218C20.5139 3.11246 20.6255 3.18672 20.7194 3.28061C20.8133 3.3745 20.8876 3.48615 20.9379 3.60905C20.9881 3.73195 21.0134 3.86363 21.0123 3.99641C21.0111 4.12919 20.9835 4.26041 20.9311 4.38241C20.8787 4.50441 20.8025 4.61476 20.707 4.707L13.414 12L20.707 19.293C20.8892 19.4816 20.99 19.7342 20.9877 19.9964C20.9854 20.2586 20.8803 20.5094 20.6948 20.6948C20.5094 20.8802 20.2586 20.9854 19.9964 20.9877C19.7342 20.99 19.4816 20.8892 19.293 20.707L12 13.414L4.70703 20.707C4.51843 20.8892 4.26583 20.99 4.00363 20.9877C3.74143 20.9854 3.49062 20.8802 3.30521 20.6948C3.1198 20.5094 3.01463 20.2586 3.01236 19.9964C3.01008 19.7342 3.11087 19.4816 3.29303 19.293L10.586 12L3.29303 4.707C3.10556 4.51948 3.00024 4.26517 3.00024 4C3.00024 3.73484 3.10556 3.48053 3.29303 3.293Z" fill="black"/>
</svg>
