<svg width="24" height="24" viewBox="0 0 24 24" fill="none" xmlns="http://www.w3.org/2000/svg">
<g clip-path="url(#clip0_32_134)">
<path d="M7.49252 13.1175C7.70346 12.9068 7.9894 12.7885 8.28752 12.7885C8.58565 12.7885 8.87158 12.9068 9.08252 13.1175L10.875 14.9085V6C10.875 5.70163 10.9935 5.41548 11.2045 5.2045C11.4155 4.99353 11.7017 4.875 12 4.875C12.2984 4.875 12.5845 4.99353 12.7955 5.2045C13.0065 5.41548 13.125 5.70163 13.125 6V14.91L14.9175 13.1175C15.0205 13.007 15.1447 12.9183 15.2827 12.8568C15.4207 12.7953 15.5697 12.7623 15.7207 12.7596C15.8718 12.7569 16.0218 12.7847 16.1619 12.8413C16.302 12.8979 16.4293 12.9821 16.5361 13.0889C16.6429 13.1958 16.7271 13.323 16.7837 13.4631C16.8403 13.6032 16.8681 13.7532 16.8654 13.9043C16.8627 14.0553 16.8297 14.2043 16.7682 14.3423C16.7067 14.4803 16.6181 14.6045 16.5075 14.7075L12 19.2165L11.208 18.4245C11.2055 18.422 11.203 18.4195 11.2005 18.417L7.49252 14.7075C7.28185 14.4966 7.16351 14.2106 7.16351 13.9125C7.16351 13.6144 7.28185 13.3284 7.49252 13.1175Z" fill="black"/>
<path d="M0 12C0 8.8174 1.26428 5.76516 3.51472 3.51472C5.76516 1.26428 8.8174 0 12 0C15.1826 0 18.2348 1.26428 20.4853 3.51472C22.7357 5.76516 24 8.8174 24 12C24 15.1826 22.7357 18.2348 20.4853 20.4853C18.2348 22.7357 15.1826 24 12 24C8.8174 24 5.76516 22.7357 3.51472 20.4853C1.26428 18.2348 0 15.1826 0 12ZM12 2.25C9.41414 2.25 6.93419 3.27723 5.10571 5.10571C3.27723 6.93419 2.25 9.41414 2.25 12C2.25 14.5859 3.27723 17.0658 5.10571 18.8943C6.93419 20.7228 9.41414 21.75 12 21.75C14.5859 21.75 17.0658 20.7228 18.8943 18.8943C20.7228 17.0658 21.75 14.5859 21.75 12C21.75 9.41414 20.7228 6.93419 18.8943 5.10571C17.0658 3.27723 14.5859 2.25 12 2.25Z" fill="black"/>
</g>
<defs>
<clipPath id="clip0_32_134">
<rect width="24" height="24" fill="white"/>
</clipPath>
</defs>
</svg>
