<svg width="24" height="24" viewBox="0 0 24 24" fill="none" xmlns="http://www.w3.org/2000/svg">
<path d="M24 3.675C24 2.475 23.025 1.5 21.825 1.5H2.175C0.975 1.5 0 2.475 0 3.675V20.325C0 21.525 0.975 22.5 2.175 22.5H10.5105V20.25H2.25V3.75H21.75V10.5H24V3.675Z" fill="black"/>
<path d="M22.875 13.5105C23.1734 13.5105 23.4595 13.629 23.6705 13.84C23.8815 14.051 24 14.3371 24 14.6355V21.375C24 21.6734 23.8815 21.9595 23.6705 22.1705C23.4595 22.3815 23.1734 22.5 22.875 22.5H13.9875C13.6891 22.5 13.403 22.3815 13.192 22.1705C12.981 21.9595 12.8625 21.6734 12.8625 21.375V14.6355C12.8625 14.3371 12.981 14.051 13.192 13.84C13.403 13.629 13.6891 13.5105 13.9875 13.5105H22.875Z" fill="black"/>
</svg>
