<svg width="24" height="24" viewBox="0 0 24 24" fill="none" xmlns="http://www.w3.org/2000/svg">
<g clip-path="url(#clip0_33_185)">
<path d="M13.233 1.1955C13.6119 0.816564 14.0617 0.515969 14.5567 0.310884C15.0518 0.1058 15.5824 0.000244141 16.1183 0.000244141C16.6541 0.000244141 17.1847 0.1058 17.6798 0.310884C18.1748 0.515969 18.6246 0.816564 19.0035 1.1955L22.8045 4.995C23.1837 5.3739 23.4845 5.8238 23.6897 6.319C23.8949 6.81419 24.0005 7.34497 24.0005 7.881C24.0005 8.41704 23.8949 8.94781 23.6897 9.44301C23.4845 9.9382 23.1837 10.3881 22.8045 10.767L17.2875 16.284L15.282 23.766L8.55301 17.037L1.92001 23.67C1.70675 23.8687 1.42468 23.9769 1.13323 23.9718C0.841778 23.9666 0.563701 23.8486 0.357581 23.6424C0.151462 23.4363 0.0333938 23.1582 0.0282514 22.8668C0.0231091 22.5753 0.131294 22.2933 0.330014 22.08L6.96301 15.447L0.234014 8.718L7.71451 6.7125L13.233 1.1955Z" fill="black"/>
</g>
<defs>
<clipPath id="clip0_33_185">
<rect width="24" height="24" fill="white"/>
</clipPath>
</defs>
</svg>
