<svg width="88" height="24" viewBox="0 0 88 24" fill="none" xmlns="http://www.w3.org/2000/svg">
<g clip-path="url(#clip0_32_150)">
<path d="M12.477 0.00999835C5.85497 -0.253002 0.273975 4.902 0.0109749 11.524C-0.252025 18.147 4.90297 23.728 11.526 23.99C18.148 24.253 23.729 19.098 23.992 12.476C24.255 5.854 19.099 0.271998 12.477 0.00999835ZM17.543 17.589C17.4488 17.754 17.2931 17.8748 17.1099 17.9251C16.9267 17.9753 16.7311 17.9508 16.566 17.857C14.9795 16.9543 13.2359 16.3614 11.428 16.11C9.62097 15.8534 7.78165 15.9426 6.00798 16.373C5.82696 16.4081 5.63938 16.3722 5.48419 16.2726C5.329 16.173 5.21813 16.0175 5.17463 15.8383C5.13112 15.6591 5.15831 15.4701 5.25056 15.3104C5.3428 15.1508 5.49301 15.0328 5.66997 14.981C7.61998 14.507 9.62497 14.41 11.628 14.691C13.631 14.973 15.531 15.619 17.275 16.611C17.3568 16.6576 17.4286 16.7199 17.4864 16.7943C17.5441 16.8686 17.5867 16.9537 17.6115 17.0445C17.6364 17.1353 17.6432 17.2301 17.6314 17.3236C17.6197 17.417 17.5896 17.5072 17.543 17.589ZM19.12 14.439C19.0619 14.5467 18.9832 14.6418 18.8883 14.719C18.7934 14.7962 18.6842 14.8539 18.567 14.8888C18.4498 14.9237 18.3268 14.9352 18.2051 14.9225C18.0835 14.9099 17.9655 14.8733 17.858 14.815C16.0002 13.8106 13.9776 13.1468 11.886 12.855C9.79488 12.559 7.66768 12.6396 5.60497 13.093C5.48546 13.1195 5.36189 13.1221 5.24135 13.1008C5.12081 13.0794 5.00567 13.0345 4.90254 12.9685C4.79942 12.9025 4.71033 12.8168 4.64039 12.7164C4.57045 12.6159 4.52103 12.5026 4.49498 12.383C4.46848 12.2635 4.46583 12.1399 4.4872 12.0194C4.50857 11.8988 4.55352 11.7837 4.61948 11.6806C4.68545 11.5774 4.77112 11.4884 4.8716 11.4184C4.97207 11.3485 5.08536 11.2991 5.20498 11.273C7.484 10.7711 9.8346 10.6824 12.145 11.011C14.4565 11.332 16.6916 12.0653 18.744 13.176C19.196 13.421 19.364 13.986 19.12 14.439ZM20.868 10.888C20.7275 11.1576 20.4858 11.3604 20.196 11.4519C19.9061 11.5434 19.5917 11.5161 19.322 11.376C17.1586 10.2513 14.8189 9.50451 12.404 9.168C9.98973 8.82558 7.53472 8.89829 5.14497 9.383C4.84881 9.4393 4.54239 9.37664 4.2921 9.20859C4.04182 9.04053 3.86783 8.78062 3.80785 8.48518C3.74787 8.18974 3.80672 7.88256 3.97165 7.63021C4.13658 7.37785 4.3943 7.20065 4.68897 7.137C7.33378 6.60016 10.0508 6.519 12.723 6.897C15.3959 7.27008 17.9855 8.09697 20.38 9.342C20.941 9.634 21.16 10.326 20.868 10.888ZM34.48 10.852L33.648 10.605C31.978 10.11 31.508 9.924 31.508 9.252C31.508 8.615 32.216 7.925 33.772 7.925C35.311 7.925 36.611 8.677 37.282 9.235C37.398 9.331 37.522 9.287 37.522 9.137V6.935C37.522 6.838 37.495 6.785 37.424 6.732C36.594 6.112 35.152 5.662 33.701 5.662C30.748 5.662 28.979 7.342 28.979 9.252C28.979 11.409 30.35 12.162 32.605 12.798L33.578 13.072C35.267 13.55 35.576 13.974 35.576 14.628C35.576 15.725 34.745 16.061 33.506 16.061C31.95 16.061 30.049 15.15 29.156 14.036C29.076 13.938 28.979 13.983 28.979 14.098V16.521C28.979 16.618 28.989 16.662 29.059 16.741C29.802 17.555 31.579 18.271 33.649 18.271C36.195 18.271 38.105 16.786 38.105 14.487C38.105 12.7 37.053 11.622 34.48 10.852ZM44.587 9.092C42.907 9.092 41.934 10.118 41.368 11.144V9.376C41.368 9.296 41.324 9.252 41.244 9.252H39.024C38.945 9.252 38.901 9.296 38.901 9.376V20.72C38.901 20.8 38.945 20.844 39.025 20.844H41.245C41.324 20.844 41.368 20.8 41.368 20.72V16.184C41.934 17.209 42.889 18.218 44.605 18.218C46.869 18.218 48.495 16.263 48.495 13.637C48.495 11.011 46.851 9.092 44.587 9.092ZM43.933 16.078C42.748 16.078 41.722 14.911 41.315 13.62C41.722 12.258 42.659 11.215 43.933 11.215C45.144 11.215 45.984 12.135 45.984 13.638C45.984 15.141 45.144 16.078 43.933 16.078ZM84.566 9.252H82.302C82.222 9.252 82.187 9.269 82.152 9.349L79.87 14.832L77.58 9.349C77.545 9.269 77.51 9.252 77.43 9.252H73.769V8.668C73.769 7.713 74.414 7.271 75.245 7.271C75.741 7.271 76.28 7.527 76.66 7.757C76.749 7.81 76.81 7.749 76.775 7.669L75.979 5.768C75.955 5.71019 75.911 5.66296 75.855 5.635C75.466 5.432 74.83 5.255 74.211 5.255C72.336 5.255 71.257 6.687 71.257 8.509V9.252H69.754C69.674 9.252 69.63 9.296 69.63 9.376V11.144C69.63 11.224 69.674 11.268 69.754 11.268H71.257V17.936C71.257 18.016 71.301 18.059 71.381 18.059H73.645C73.725 18.059 73.769 18.015 73.769 17.936V11.268H75.705L78.517 17.378L77.005 20.703C76.961 20.801 77.014 20.845 77.102 20.845H79.516C79.596 20.845 79.632 20.827 79.666 20.748L84.663 9.393C84.698 9.313 84.654 9.252 84.566 9.252ZM54.014 9.04C51.149 9.04 49.177 11.065 49.177 13.656C49.177 16.229 51.148 18.272 54.014 18.272C56.87 18.272 58.86 16.229 58.86 13.656C58.86 11.065 56.87 9.04 54.014 9.04ZM54.022 16.105C52.652 16.105 51.679 15.062 51.679 13.655C51.679 12.25 52.652 11.206 54.022 11.206C55.384 11.206 56.357 12.249 56.357 13.656C56.357 15.062 55.384 16.106 54.022 16.106M87.563 9.772C87.4486 9.57338 87.2814 9.41034 87.08 9.301C86.8675 9.18543 86.6288 9.12686 86.387 9.131C86.131 9.131 85.9 9.18766 85.694 9.301C85.4922 9.41019 85.3246 9.57324 85.21 9.772C85.094 9.97333 85.036 10.2003 85.036 10.453C85.036 10.703 85.094 10.9287 85.21 11.13C85.3266 11.33 85.488 11.487 85.694 11.601C85.9 11.715 86.131 11.7717 86.387 11.771C86.643 11.7703 86.874 11.7137 87.08 11.601C87.286 11.4883 87.447 11.3313 87.563 11.13C87.679 10.9287 87.7373 10.7033 87.738 10.454C87.738 10.2007 87.6796 9.97333 87.563 9.772ZM87.352 11.019C87.26 11.1835 87.1234 11.3187 86.958 11.409C86.783 11.5044 86.5862 11.5526 86.387 11.549C86.1861 11.553 85.9876 11.5048 85.811 11.409C85.6466 11.3183 85.5111 11.1831 85.42 11.019C85.325 10.8457 85.2768 10.6506 85.28 10.453C85.28 10.2423 85.3266 10.055 85.42 9.891C85.5133 9.727 85.6436 9.59766 85.811 9.503C85.9783 9.40833 86.1703 9.36166 86.387 9.363C86.6003 9.363 86.7903 9.40967 86.957 9.503C87.1256 9.597 87.2573 9.727 87.352 9.893C87.4466 10.059 87.494 10.2473 87.494 10.458C87.494 10.666 87.4466 10.8527 87.352 11.018M67.517 5.238C66.667 5.238 66.049 5.838 66.049 6.634C66.049 7.43 66.668 8.031 67.517 8.031C68.383 8.031 69.002 7.431 69.002 6.634C69.002 5.838 68.383 5.238 67.517 5.238ZM86.846 10.427C86.8883 10.3978 86.9227 10.3586 86.946 10.3129C86.9694 10.2672 86.9811 10.2164 86.98 10.165C86.98 10.053 86.936 9.96433 86.848 9.899C86.76 9.833 86.633 9.8 86.467 9.8H85.879V11.029H86.163V10.54H86.317L86.691 11.029H87.041L86.631 10.511C86.7082 10.5001 86.7818 10.4714 86.846 10.427ZM86.422 10.318H86.162V10.018H86.432C86.512 10.018 86.5733 10.03 86.616 10.054C86.637 10.0648 86.6544 10.0815 86.666 10.1022C86.6776 10.1228 86.6828 10.1464 86.681 10.17C86.6816 10.193 86.6756 10.2156 86.6638 10.2353C86.6519 10.255 86.6346 10.2709 86.614 10.281C86.554 10.309 86.4881 10.3217 86.422 10.318ZM68.657 9.252H66.394C66.314 9.252 66.27 9.296 66.27 9.376V17.936C66.27 18.016 66.314 18.059 66.394 18.059H68.657C68.737 18.059 68.781 18.015 68.781 17.936V9.376C68.781 9.296 68.737 9.252 68.657 9.252ZM65.324 15.857C65.0015 16.0333 64.6384 16.122 64.271 16.114C63.546 16.114 63.086 15.689 63.086 14.752V11.268H65.297C65.377 11.268 65.421 11.224 65.421 11.144V9.376C65.421 9.296 65.377 9.252 65.297 9.252H63.087V6.944C63.087 6.847 63.024 6.794 62.937 6.864L58.983 9.977C58.93 10.021 58.913 10.065 58.913 10.137V11.144C58.913 11.224 58.957 11.268 59.036 11.268H60.575V15.123C60.575 17.21 61.778 18.183 63.493 18.183C64.236 18.183 64.953 17.989 65.377 17.741C65.439 17.706 65.447 17.671 65.447 17.608V15.928C65.447 15.84 65.403 15.812 65.324 15.857Z" fill="black"/>
</g>
<defs>
<clipPath id="clip0_32_150">
<rect width="88" height="24" fill="white"/>
</clipPath>
</defs>
</svg>
