<svg width="60" height="24" viewBox="0 0 60 24" fill="none" xmlns="http://www.w3.org/2000/svg">
<g clip-path="url(#clip0_32_148)">
<path d="M-15.523 0.00999835C-22.145 -0.253002 -27.726 4.902 -27.989 11.524C-28.252 18.147 -23.097 23.728 -16.474 23.99C-9.85203 24.253 -4.27103 19.098 -4.00803 12.476C-3.74503 5.854 -8.90103 0.271998 -15.523 0.00999835ZM-10.457 17.589C-10.5512 17.754 -10.7069 17.8748 -10.8901 17.9251C-11.0733 17.9753 -11.2689 17.9508 -11.434 17.857C-13.0205 16.9543 -14.7641 16.3614 -16.572 16.11C-18.379 15.8534 -20.2184 15.9426 -21.992 16.373C-22.173 16.4081 -22.3606 16.3722 -22.5158 16.2726C-22.671 16.173 -22.7819 16.0175 -22.8254 15.8383C-22.8689 15.6591 -22.8417 15.4701 -22.7494 15.3104C-22.6572 15.1508 -22.507 15.0328 -22.33 14.981C-20.38 14.507 -18.375 14.41 -16.372 14.691C-14.369 14.973 -12.469 15.619 -10.725 16.611C-10.6432 16.6576 -10.5714 16.7199 -10.5136 16.7943C-10.4559 16.8686 -10.4133 16.9537 -10.3885 17.0445C-10.3636 17.1353 -10.3568 17.2301 -10.3686 17.3236C-10.3803 17.417 -10.4104 17.5072 -10.457 17.589ZM-8.88003 14.439C-8.93809 14.5467 -9.01682 14.6418 -9.11171 14.719C-9.2066 14.7962 -9.31579 14.8539 -9.43302 14.8888C-9.55025 14.9237 -9.67321 14.9352 -9.79488 14.9225C-9.91654 14.9099 -10.0345 14.8733 -10.142 14.815C-11.9998 13.8106 -14.0224 13.1468 -16.114 12.855C-18.2051 12.559 -20.3323 12.6396 -22.395 13.093C-22.5145 13.1195 -22.6381 13.1221 -22.7587 13.1008C-22.8792 13.0794 -22.9943 13.0345 -23.0975 12.9685C-23.2006 12.9025 -23.2897 12.8168 -23.3596 12.7164C-23.4296 12.6159 -23.479 12.5026 -23.505 12.383C-23.5315 12.2635 -23.5342 12.1399 -23.5128 12.0194C-23.4914 11.8988 -23.4465 11.7837 -23.3805 11.6806C-23.3146 11.5774 -23.2289 11.4884 -23.1284 11.4184C-23.0279 11.3485 -22.9146 11.2991 -22.795 11.273C-20.516 10.7711 -18.1654 10.6824 -15.855 11.011C-13.5435 11.332 -11.3084 12.0653 -9.25603 13.176C-8.80403 13.421 -8.63603 13.986 -8.88003 14.439ZM-7.13202 10.888C-7.27245 11.1576 -7.51416 11.3604 -7.80404 11.4519C-8.09392 11.5434 -8.40827 11.5161 -8.67803 11.376C-10.8414 10.2513 -13.1811 9.50451 -15.596 9.168C-18.0103 8.82558 -20.4653 8.89829 -22.855 9.383C-23.1512 9.4393 -23.4576 9.37664 -23.7079 9.20859C-23.9582 9.04053 -24.1322 8.78062 -24.1921 8.48518C-24.2521 8.18974 -24.1933 7.88256 -24.0284 7.63021C-23.8634 7.37785 -23.6057 7.20065 -23.311 7.137C-20.6662 6.60016 -17.9492 6.519 -15.277 6.897C-12.6041 7.27008 -10.0145 8.09697 -7.62003 9.342C-7.05902 9.634 -6.84002 10.326 -7.13202 10.888ZM6.47998 10.852L5.64798 10.605C3.97798 10.11 3.50797 9.924 3.50797 9.252C3.50797 8.615 4.21598 7.925 5.77198 7.925C7.31098 7.925 8.61097 8.677 9.28197 9.235C9.39798 9.331 9.52198 9.287 9.52198 9.137V6.935C9.52198 6.838 9.49498 6.785 9.42398 6.732C8.59398 6.112 7.15198 5.662 5.70098 5.662C2.74798 5.662 0.978975 7.342 0.978975 9.252C0.978975 11.409 2.34998 12.162 4.60498 12.798L5.57798 13.072C7.26698 13.55 7.57598 13.974 7.57598 14.628C7.57598 15.725 6.74498 16.061 5.50598 16.061C3.94998 16.061 2.04897 15.15 1.15598 14.036C1.07598 13.938 0.978975 13.983 0.978975 14.098V16.521C0.978975 16.618 0.988976 16.662 1.05898 16.741C1.80198 17.555 3.57898 18.271 5.64898 18.271C8.19498 18.271 10.105 16.786 10.105 14.487C10.105 12.7 9.05298 11.622 6.47998 10.852ZM16.587 9.092C14.907 9.092 13.934 10.118 13.368 11.144V9.376C13.368 9.296 13.324 9.252 13.244 9.252H11.024C10.945 9.252 10.901 9.296 10.901 9.376V20.72C10.901 20.8 10.945 20.844 11.025 20.844H13.245C13.324 20.844 13.368 20.8 13.368 20.72V16.184C13.934 17.209 14.889 18.218 16.605 18.218C18.869 18.218 20.495 16.263 20.495 13.637C20.495 11.011 18.851 9.092 16.587 9.092ZM15.933 16.078C14.748 16.078 13.722 14.911 13.315 13.62C13.722 12.258 14.659 11.215 15.933 11.215C17.144 11.215 17.984 12.135 17.984 13.638C17.984 15.141 17.144 16.078 15.933 16.078ZM56.566 9.252H54.302C54.222 9.252 54.187 9.269 54.152 9.349L51.87 14.832L49.58 9.349C49.545 9.269 49.51 9.252 49.43 9.252H45.769V8.668C45.769 7.713 46.414 7.271 47.245 7.271C47.741 7.271 48.28 7.527 48.66 7.757C48.749 7.81 48.81 7.749 48.775 7.669L47.979 5.768C47.955 5.71019 47.911 5.66296 47.855 5.635C47.466 5.432 46.83 5.255 46.211 5.255C44.336 5.255 43.257 6.687 43.257 8.509V9.252H41.754C41.674 9.252 41.63 9.296 41.63 9.376V11.144C41.63 11.224 41.674 11.268 41.754 11.268H43.257V17.936C43.257 18.016 43.301 18.059 43.381 18.059H45.645C45.725 18.059 45.769 18.015 45.769 17.936V11.268H47.705L50.517 17.378L49.005 20.703C48.961 20.801 49.014 20.845 49.102 20.845H51.516C51.596 20.845 51.632 20.827 51.666 20.748L56.663 9.393C56.698 9.313 56.654 9.252 56.566 9.252ZM26.014 9.04C23.149 9.04 21.177 11.065 21.177 13.656C21.177 16.229 23.148 18.272 26.014 18.272C28.87 18.272 30.86 16.229 30.86 13.656C30.86 11.065 28.87 9.04 26.014 9.04ZM26.022 16.105C24.652 16.105 23.679 15.062 23.679 13.655C23.679 12.25 24.652 11.206 26.022 11.206C27.384 11.206 28.357 12.249 28.357 13.656C28.357 15.062 27.384 16.106 26.022 16.106M59.563 9.772C59.4486 9.57338 59.2814 9.41034 59.08 9.301C58.8675 9.18543 58.6288 9.12686 58.387 9.131C58.131 9.131 57.9 9.18766 57.694 9.301C57.4922 9.41019 57.3246 9.57324 57.21 9.772C57.094 9.97333 57.036 10.2003 57.036 10.453C57.036 10.703 57.094 10.9287 57.21 11.13C57.3266 11.33 57.488 11.487 57.694 11.601C57.9 11.715 58.131 11.7717 58.387 11.771C58.643 11.7703 58.874 11.7137 59.08 11.601C59.286 11.4883 59.447 11.3313 59.563 11.13C59.679 10.9287 59.7373 10.7033 59.738 10.454C59.738 10.2007 59.6796 9.97333 59.563 9.772ZM59.352 11.019C59.26 11.1835 59.1234 11.3187 58.958 11.409C58.783 11.5044 58.5862 11.5526 58.387 11.549C58.1861 11.553 57.9876 11.5048 57.811 11.409C57.6466 11.3183 57.5111 11.1831 57.42 11.019C57.325 10.8457 57.2768 10.6506 57.28 10.453C57.28 10.2423 57.3266 10.055 57.42 9.891C57.5133 9.727 57.6436 9.59766 57.811 9.503C57.9783 9.40833 58.1703 9.36166 58.387 9.363C58.6003 9.363 58.7903 9.40967 58.957 9.503C59.1256 9.597 59.2573 9.727 59.352 9.893C59.4466 10.059 59.494 10.2473 59.494 10.458C59.494 10.666 59.4466 10.8527 59.352 11.018M39.517 5.238C38.667 5.238 38.049 5.838 38.049 6.634C38.049 7.43 38.668 8.031 39.517 8.031C40.383 8.031 41.002 7.431 41.002 6.634C41.002 5.838 40.383 5.238 39.517 5.238ZM58.846 10.427C58.8883 10.3978 58.9227 10.3586 58.946 10.3129C58.9694 10.2672 58.9811 10.2164 58.98 10.165C58.98 10.053 58.936 9.96433 58.848 9.899C58.76 9.833 58.633 9.8 58.467 9.8H57.879V11.029H58.163V10.54H58.317L58.691 11.029H59.041L58.631 10.511C58.7082 10.5001 58.7818 10.4714 58.846 10.427ZM58.422 10.318H58.162V10.018H58.432C58.512 10.018 58.5733 10.03 58.616 10.054C58.637 10.0648 58.6544 10.0815 58.666 10.1022C58.6776 10.1228 58.6828 10.1464 58.681 10.17C58.6816 10.193 58.6756 10.2156 58.6638 10.2353C58.6519 10.255 58.6346 10.2709 58.614 10.281C58.554 10.309 58.4881 10.3217 58.422 10.318ZM40.657 9.252H38.394C38.314 9.252 38.27 9.296 38.27 9.376V17.936C38.27 18.016 38.314 18.059 38.394 18.059H40.657C40.737 18.059 40.781 18.015 40.781 17.936V9.376C40.781 9.296 40.737 9.252 40.657 9.252ZM37.324 15.857C37.0015 16.0333 36.6384 16.122 36.271 16.114C35.546 16.114 35.086 15.689 35.086 14.752V11.268H37.297C37.377 11.268 37.421 11.224 37.421 11.144V9.376C37.421 9.296 37.377 9.252 37.297 9.252H35.087V6.944C35.087 6.847 35.024 6.794 34.937 6.864L30.983 9.977C30.93 10.021 30.913 10.065 30.913 10.137V11.144C30.913 11.224 30.957 11.268 31.036 11.268H32.575V15.123C32.575 17.21 33.778 18.183 35.493 18.183C36.236 18.183 36.953 17.989 37.377 17.741C37.439 17.706 37.447 17.671 37.447 17.608V15.928C37.447 15.84 37.403 15.812 37.324 15.857Z" fill="black"/>
</g>
<defs>
<clipPath id="clip0_32_148">
<rect width="60" height="24" fill="white"/>
</clipPath>
</defs>
</svg>
