<svg width="24" height="24" viewBox="0 0 24 24" fill="none" xmlns="http://www.w3.org/2000/svg">
<path d="M14.6115 1.275C14.7826 1.3738 14.9247 1.51593 15.0235 1.68709C15.1222 1.85825 15.1741 2.0524 15.174 2.25V21.75C15.1741 21.9475 15.1222 22.1416 15.0235 22.3128C14.9249 22.4839 14.7829 22.626 14.6118 22.7248C14.4408 22.8236 14.2467 22.8757 14.0492 22.8757C13.8516 22.8758 13.6576 22.8238 13.4865 22.725L3.099 16.725C1.84829 15.9998 0.936025 14.8085 0.562081 13.412C0.188136 12.0154 0.383007 10.5276 1.104 9.2745C1.58226 8.44506 2.27028 7.75601 3.099 7.2765L13.4865 1.2765C13.6575 1.17776 13.8515 1.12578 14.049 1.12578C14.2465 1.12578 14.4405 1.17626 14.6115 1.275ZM4.2255 9.225C3.73945 9.50709 3.33602 9.91189 3.05558 10.3989C2.77514 10.8859 2.62754 11.438 2.62754 12C2.62754 12.562 2.77514 13.1141 3.05558 13.6011C3.33602 14.0881 3.73945 14.4929 4.2255 14.775L12.9255 19.8V4.2L4.2255 9.225ZM17.25 15.66V8.34C17.9199 8.68825 18.4814 9.21369 18.8733 9.85906C19.2651 10.5044 19.4724 11.245 19.4724 12C19.4724 12.755 19.2651 13.4956 18.8733 14.1409C18.4814 14.7863 17.9199 15.3117 17.25 15.66Z" fill="black"/>
<path d="M17.25 20.421C19.1648 19.9938 20.8769 18.9268 22.1038 17.396C23.3308 15.8652 23.9994 13.9619 23.9994 12C23.9994 10.0381 23.3308 8.13483 22.1038 6.60399C20.8769 5.07314 19.1648 4.00616 17.25 3.57899V5.904C18.5531 6.30549 19.6932 7.11405 20.5031 8.21103C21.313 9.30802 21.75 10.6357 21.75 11.9992C21.75 13.3628 21.313 14.6905 20.5031 15.7875C19.6932 16.8844 18.5531 17.693 17.25 18.0945V20.4195V20.421Z" fill="black"/>
</svg>
